<?xml version="1.0" encoding="iso-8859-1"?>
<!-- Generator: Adobe Illustrator 16.0.0, SVG Export Plug-In . SVG Version: 6.00 Build 0)  -->
<!DOCTYPE svg PUBLIC "-//W3C//DTD SVG 1.1//EN" "http://www.w3.org/Graphics/SVG/1.1/DTD/svg11.dtd">
<svg xmlns="http://www.w3.org/2000/svg" xmlns:xlink="http://www.w3.org/1999/xlink" version="1.1" id="Capa_1" x="0px" y="0px" width="512px" height="512px" viewBox="0 0 98.048 98.048" style="enable-background:new 0 0 98.048 98.048;" xml:space="preserve">
<g>
	<g>
		<path d="M49.022,22.74c5.758,0,10.428-4.668,10.428-10.427c0-2.409-0.836-4.609-2.21-6.371h-3.373V4.359h1.852    c-0.647-0.545-1.353-1.025-2.12-1.401C52.806,1.219,51.059,0,49.025,0c-2.032,0-3.776,1.217-4.57,2.954    c-0.771,0.377-1.478,0.858-2.128,1.405h2.117v1.583h-3.637c-1.374,1.762-2.209,3.962-2.209,6.371    C38.597,18.072,43.264,22.74,49.022,22.74z M49.024,2.2c1.562,0,2.833,1.271,2.833,2.833c0,1.562-1.271,2.832-2.833,2.832    c-1.562,0-2.833-1.271-2.833-2.832C46.192,3.47,47.462,2.2,49.024,2.2z" fill="#6fa8dc"/>
		<path d="M46.502,23.315c-0.009,0.003-0.019,0.006-0.027,0.007c-1.055,0.252-2.08,0.68-3.039,1.226    c0.572,4.378,3.098,8.343,5.586,8.343c2.492,0,5.022-3.98,5.588-8.367c-0.946-0.526-1.961-0.924-2.991-1.178l-2.598,2.615    L46.502,23.315z" fill="#6fa8dc"/>
		<path d="M66.615,60.26V57.5c1.35-0.555,2.303-1.878,2.303-3.428c0-19.98-10.279-27.234-12.793-28.621    c-0.754,4.4-3.234,8.521-6.448,9.045c-0.488,2.384,0.358,3.346,1.348,4.424c1.807,1.968,2.836,3.836-0.299,8.997    c0.222,0.331,0.352,0.729,0.352,1.156c0,1.154-0.935,2.089-2.088,2.089c-1.154,0-2.089-0.935-2.089-2.089    c0-1.152,0.935-2.087,2.089-2.087c0.114,0,0.224,0.016,0.333,0.033c2.732-4.479,1.728-5.601,0.471-6.97    c-1.06-1.155-2.35-2.574-1.812-5.625c-3.034-0.73-5.368-4.662-6.115-8.876c-0.093,0.044-0.186,0.084-0.274,0.141    c-0.51,0.328-12.486,8.276-12.486,27.865c0,2.049,1.66,3.707,3.707,3.707c2.048,0,3.707-1.658,3.707-3.707    c0-4.451,0.744-9.598,1.796-12.568v9.111l-3.793,21.43h4.327l0.003,21.736c0,2.643,2.142,4.784,4.783,4.783    c2.643,0,4.783-2.143,4.783-4.783l-0.001-21.736h0.681l-0.003,21.736c0,2.643,2.142,4.784,4.783,4.784    c2.644,0,4.785-2.142,4.785-4.784V71.529h3.107v9.621h7.167V60.26H66.615z M61.774,60.26v3.79l-2.112-13.772v-9.396    c1.409,3.245,1.842,7.811,1.842,13.193c0,1.658,1.096,3.045,2.597,3.519v2.668L61.774,60.26L61.774,60.26z" fill="#6fa8dc"/>
	</g>
</g>
<g>
</g>
<g>
</g>
<g>
</g>
<g>
</g>
<g>
</g>
<g>
</g>
<g>
</g>
<g>
</g>
<g>
</g>
<g>
</g>
<g>
</g>
<g>
</g>
<g>
</g>
<g>
</g>
<g>
</g>
</svg>
