<?xml version="1.0" encoding="iso-8859-1"?>
<!-- Generator: Adobe Illustrator 18.1.1, SVG Export Plug-In . SVG Version: 6.00 Build 0)  -->
<svg xmlns="http://www.w3.org/2000/svg" xmlns:xlink="http://www.w3.org/1999/xlink" version="1.1" id="Capa_1" x="0px" y="0px" viewBox="0 0 31.259 31.259" style="enable-background:new 0 0 31.259 31.259;" xml:space="preserve" width="512px" height="512px">
<g>
	<path d="M18.834,4.99c0.078,0.291,0.548,1.783,2.116,2.455c0,0,0.06-0.611,0.229-0.669c0,0,0.193,0.096,0.248,0.325   c0,0,0.414-3.92-1.369-5.383l0.006-0.021c-3.723-3.287-7.939-0.786-7.939-0.786c-3.09,1.988-2.228,6.284-2.228,6.284   C15.709,7.744,18.743,5.071,18.834,4.99z" fill="#6fa8dc"/>
	<path d="M26.644,18.434c-0.568-1.265-3.534-2.389-4.555-2.744c-1.586-3.476-0.73-7.865-0.73-7.865   C21.08,9.072,20.72,9.55,20.72,9.55c-0.279,2.256-2.117,4.114-2.117,4.114c-0.033,0.606,0.045,1.121,0.187,1.56   c-2.841,4.591-5.165,2.189-6.31,0.316c0.219-0.505,0.352-1.118,0.311-1.876c0,0-1.838-1.858-2.119-4.114   c0,0-0.358-0.478-0.639-1.725c0,0,0.854,4.374-0.722,7.848c-1.224,0.524-2.454,0.896-2.454,0.896   c-1.33,0.511-1.889,1.276-1.889,1.276C3,20.757,2.771,27.243,2.771,27.243c0.024,1.482,0.661,1.634,0.661,1.634   c4.52,2.016,11.607,2.375,11.607,2.375c7.275,0.154,12.575-2.068,12.575-2.068c0.77-0.486,0.793-0.867,0.793-0.867   C28.942,23.667,26.644,18.434,26.644,18.434z M18.527,25.604h-2.009v2.054h-1.752v-2.054h-2.035v-1.751h2.035v-1.994h1.752v1.994   h2.009V25.604z" fill="#6fa8dc"/>
	<g>
	</g>
	<g>
	</g>
	<g>
	</g>
	<g>
	</g>
	<g>
	</g>
	<g>
	</g>
	<g>
	</g>
	<g>
	</g>
	<g>
	</g>
	<g>
	</g>
	<g>
	</g>
	<g>
	</g>
	<g>
	</g>
	<g>
	</g>
	<g>
	</g>
</g>
<g>
</g>
<g>
</g>
<g>
</g>
<g>
</g>
<g>
</g>
<g>
</g>
<g>
</g>
<g>
</g>
<g>
</g>
<g>
</g>
<g>
</g>
<g>
</g>
<g>
</g>
<g>
</g>
<g>
</g>
</svg>
