<?xml version="1.0" encoding="iso-8859-1"?>
<!-- Generator: Adobe Illustrator 16.0.0, SVG Export Plug-In . SVG Version: 6.00 Build 0)  -->
<!DOCTYPE svg PUBLIC "-//W3C//DTD SVG 1.1//EN" "http://www.w3.org/Graphics/SVG/1.1/DTD/svg11.dtd">
<svg xmlns="http://www.w3.org/2000/svg" xmlns:xlink="http://www.w3.org/1999/xlink" version="1.1" id="Capa_1" x="0px" y="0px" width="512px" height="512px" viewBox="0 0 31.366 31.366" style="enable-background:new 0 0 31.366 31.366;" xml:space="preserve">
<g>
	<path d="M28.827,24.598h-2v-1h1v-1h1V24.598z M5.976,20.622c0,0.723,0.433,1.082,1.301,1.082c0.008,0,0.08,0.004,0.218,0.012   v-2.135l-0.212,0.006C6.411,19.584,5.976,19.931,5.976,20.622z M25.969,16.263c1.174,0,2.125-0.951,2.125-2.126   c0-1.174-0.951-2.126-2.125-2.126c-1.177,0-2.127,0.952-2.127,2.126C23.842,15.312,24.792,16.263,25.969,16.263z M20.059,24.598   h3.383v-1h-3.383V24.598z M9.802,23.259c-0.211-0.142-0.648-0.212-1.314-0.212v2.306h0.211c0.944,0,1.417-0.405,1.417-1.216   C10.116,23.692,10.011,23.401,9.802,23.259z M16.674,3.676h-3.386v1h3.386V3.676z M8.905,9.06h-1v3.385h1V9.06z M31.366,1.137v26   H14.308c-1.464,1.878-3.742,3.092-6.308,3.092c-4.418,0-8-3.583-8-8.001c0-3.495,2.244-6.457,5.365-7.547V1.137H31.366z    M11.604,24.114c0-0.854-0.191-1.443-0.575-1.765c-0.383-0.322-1.121-0.513-2.215-0.572l-0.327-0.014v-2.179h0.23   c0.808,0,1.21,0.322,1.21,0.97l0.006,0.157h1.422V20.51c0-0.854-0.202-1.439-0.606-1.754c-0.406-0.314-1.159-0.473-2.262-0.473   v-0.848H7.495v0.848c-1.153,0-1.943,0.164-2.369,0.492c-0.426,0.328-0.64,0.939-0.64,1.83c0,0.919,0.214,1.547,0.637,1.883   c0.424,0.334,1.214,0.502,2.372,0.502v2.36l-0.218-0.005c-0.594,0-0.977-0.078-1.146-0.234c-0.171-0.154-0.258-0.502-0.258-1.039   v-0.148h-1.47l-0.007,0.297c0,0.879,0.21,1.497,0.633,1.854c0.421,0.354,1.151,0.53,2.188,0.53l0.278,0.009v0.975h0.992v-0.975   l0.303-0.009c1.041,0,1.771-0.188,2.188-0.556C11.395,25.677,11.604,25.034,11.604,24.114z M29.366,10.982H22.28v6.312h7.086   V10.982z M29.366,3.137h-22V14.26c0.21-0.017,0.42-0.032,0.635-0.032c4.418,0,8.001,3.58,8.001,8c0,0.47-0.048,0.924-0.125,1.37   h0.799v1h-1.031c-0.057,0.186-0.127,0.359-0.196,0.539h13.918v-6.846h-0.539v1.479h-1v-1.479h-6.547V9.98h6.547V9.199h1V9.98h0.539   L29.366,3.137L29.366,3.137z M27.827,5.676h1v-2h-2v1h1V5.676z M23.441,3.676h-3.385v1h3.385V3.676z M8.905,4.676h1v-1h-2v2h1   V4.676z" fill="#6fa8dc"/>
</g>
<g>
</g>
<g>
</g>
<g>
</g>
<g>
</g>
<g>
</g>
<g>
</g>
<g>
</g>
<g>
</g>
<g>
</g>
<g>
</g>
<g>
</g>
<g>
</g>
<g>
</g>
<g>
</g>
<g>
</g>
</svg>
