<?xml version="1.0" encoding="iso-8859-1"?>
<!-- Generator: Adobe Illustrator 18.0.0, SVG Export Plug-In . SVG Version: 6.00 Build 0)  -->
<!DOCTYPE svg PUBLIC "-//W3C//DTD SVG 1.1//EN" "http://www.w3.org/Graphics/SVG/1.1/DTD/svg11.dtd">
<svg xmlns="http://www.w3.org/2000/svg" xmlns:xlink="http://www.w3.org/1999/xlink" version="1.1" id="Capa_1" x="0px" y="0px" viewBox="0 0 210 210" style="enable-background:new 0 0 210 210;" xml:space="preserve" width="512px" height="512px">
<path d="M11.842,145.349v30h38.329v-65.605H76.47c1.879,0,3.722-0.051,5.53-0.152l28.328,35.483L77.136,180H57.789v30h32.222  l39.212-41.26l32.94,41.26h35.995v-30h-21.558l-26.515-33.211l28.655-30.152h19.417v-30h-32.292l-34.675,36.485l-17.733-22.212  c15.95-9.269,25.018-25.423,25.018-46.515C138.476,20.843,114.717,0,76.47,0H38.842H20.171h-8.329v30h8.329v115.349H11.842z   M50.171,30H76.47c32.006,0,32.006,18.361,32.006,24.396c0,5.555-0.002,21.166-22.266,24.652c-3.483,0.342-6.495,0.593-9.74,0.593  H50.171V30z" fill="#6fa8dc"/>
<g>
</g>
<g>
</g>
<g>
</g>
<g>
</g>
<g>
</g>
<g>
</g>
<g>
</g>
<g>
</g>
<g>
</g>
<g>
</g>
<g>
</g>
<g>
</g>
<g>
</g>
<g>
</g>
<g>
</g>
</svg>
